<svg width="37" height="31" viewBox="0 0 37 31" fill="none" xmlns="http://www.w3.org/2000/svg">
<path d="M0 23V4C0 1.79086 1.79086 0 4 0H33C35.2091 0 37 1.79086 37 4V23C37 25.2091 35.2091 27 33 27H4C1.79086 27 0 25.2091 0 23Z" fill="#E0E0E0"/>
<path d="M30.5 31H6.5C5.67157 31 5 30.3284 5 29.5C5 28.6716 5.67157 28 6.5 28H30.5C31.3284 28 32 28.6716 32 29.5C32 30.3284 31.3284 31 30.5 31Z" fill="#E0E0E0"/>
<path fill-rule="evenodd" clip-rule="evenodd" d="M12.4544 7.27325C12.3142 6.96084 12.4538 6.59395 12.7663 6.45377C13.0787 6.3136 13.4456 6.45323 13.5857 6.76564L17.139 14.685C17.2792 14.9974 17.1395 15.3643 16.8271 15.5045C16.5147 15.6447 16.1478 15.505 16.0076 15.1926L12.4544 7.27325ZM23.5212 10.3858C23.7471 10.1285 24.1389 10.1032 24.3962 10.3291C24.6534 10.5551 24.6788 10.9468 24.4528 11.2041L20.3613 15.8624C20.1354 16.1197 19.7436 16.145 19.4864 15.9191C19.2291 15.6931 19.2037 15.3014 19.4297 15.0441L23.5212 10.3858ZM17.7806 18.6C18.4654 18.6 19.0206 18.0448 19.0206 17.36C19.0206 16.6751 18.4654 16.12 17.7806 16.12C17.0957 16.12 16.5406 16.6751 16.5406 17.36C16.5406 18.0448 17.0957 18.6 17.7806 18.6Z" fill="#333333"/>
</svg>
