<svg width="20" height="20" viewBox="0 0 20 20" fill="none" xmlns="http://www.w3.org/2000/svg">
<path d="M5.83366 16.6667H3.33366C2.89163 16.6667 2.46771 16.4911 2.15515 16.1785C1.84259 15.866 1.66699 15.442 1.66699 15V4.16667C1.66699 3.72464 1.84259 3.30072 2.15515 2.98816C2.46771 2.6756 2.89163 2.5 3.33366 2.5H6.58366C6.8624 2.49727 7.13737 2.56449 7.38341 2.69552C7.62945 2.82655 7.83869 3.01719 7.99199 3.25L8.66699 4.25C8.81875 4.48045 9.02535 4.6696 9.26824 4.80051C9.51114 4.93141 9.78273 4.99996 10.0587 5H16.667C17.109 5 17.5329 5.1756 17.8455 5.48816C18.1581 5.80072 18.3337 6.22464 18.3337 6.66667M13.3337 11.6667V13.3333L14.167 14.1667M18.3337 13.3333C18.3337 16.0948 16.0951 18.3333 13.3337 18.3333C10.5722 18.3333 8.33366 16.0948 8.33366 13.3333C8.33366 10.5719 10.5722 8.33334 13.3337 8.33334C16.0951 8.33334 18.3337 10.5719 18.3337 13.3333Z" stroke="#B4B7E0" stroke-width="2" stroke-linecap="round" stroke-linejoin="round"/>
</svg>
