<svg width="20" height="20" viewBox="0 0 20 20" fill="none" xmlns="http://www.w3.org/2000/svg">
<path d="M12.5 17.5V10.8333C12.5 10.6123 12.4122 10.4004 12.2559 10.2441C12.0996 10.0878 11.8877 10 11.6667 10H8.33333C8.11232 10 7.90036 10.0878 7.74408 10.2441C7.5878 10.4004 7.5 10.6123 7.5 10.8333V17.5M2.5 8.33333C2.49994 8.09089 2.55278 7.85135 2.65482 7.63143C2.75687 7.41151 2.90566 7.2165 3.09083 7.06L8.92417 2.06083C9.22499 1.80659 9.60613 1.6671 10 1.6671C10.3939 1.6671 10.775 1.80659 11.0758 2.06083L16.9092 7.06C17.0943 7.2165 17.2431 7.41151 17.3452 7.63143C17.4472 7.85135 17.5001 8.09089 17.5 8.33333V15.8333C17.5 16.2754 17.3244 16.6993 17.0118 17.0118C16.6993 17.3244 16.2754 17.5 15.8333 17.5H4.16667C3.72464 17.5 3.30072 17.3244 2.98816 17.0118C2.67559 16.6993 2.5 16.2754 2.5 15.8333V8.33333Z" stroke="#B4B7E0" stroke-width="2" stroke-linecap="round" stroke-linejoin="round"/>
</svg>
