<svg width="20" height="20" viewBox="0 0 20 20" fill="none" xmlns="http://www.w3.org/2000/svg">
<path d="M16.6663 5.83333H9.16634M11.6663 14.1667H4.16634M11.6663 14.1667C11.6663 15.5474 12.7856 16.6667 14.1663 16.6667C15.5471 16.6667 16.6663 15.5474 16.6663 14.1667C16.6663 12.7859 15.5471 11.6667 14.1663 11.6667C12.7856 11.6667 11.6663 12.7859 11.6663 14.1667ZM8.33301 5.83333C8.33301 7.21404 7.21372 8.33333 5.83301 8.33333C4.4523 8.33333 3.33301 7.21404 3.33301 5.83333C3.33301 4.45262 4.4523 3.33333 5.83301 3.33333C7.21372 3.33333 8.33301 4.45262 8.33301 5.83333Z" stroke="#B4B7E0" stroke-width="2" stroke-linecap="round" stroke-linejoin="round"/>
</svg>
